<?xml version="1.0" encoding="UTF-8"?>
<svg xmlns="http://www.w3.org/2000/svg" xmlns:xlink="http://www.w3.org/1999/xlink" viewBox="0 0 331.04 333.86">
  <defs>
    <style>
      .cls-1 {
        fill: #d1d7d9;
      }

      .cls-2 {
        stroke: #e4e5eb;
      }

      .cls-2, .cls-3, .cls-4, .cls-5, .cls-6 {
        fill: none;
      }

      .cls-2, .cls-4, .cls-5, .cls-6 {
        stroke-linecap: round;
        stroke-linejoin: round;
      }

      .cls-7 {
        clip-path: url(#clippath-4);
      }

      .cls-8 {
        fill: #e8ecec;
      }

      .cls-9 {
        fill: #383838;
        mix-blend-mode: multiply;
        opacity: .09;
      }

      .cls-10 {
        fill: #fff;
      }

      .cls-11 {
        clip-path: url(#clippath-1);
      }

      .cls-12 {
        isolation: isolate;
      }

      .cls-13 {
        clip-path: url(#clippath-3);
      }

      .cls-4 {
        stroke: #d9ddf0;
      }

      .cls-5 {
        stroke: #797e91;
      }

      .cls-14 {
        clip-path: url(#clippath-2);
      }

      .cls-15 {
        clip-path: url(#clippath);
      }

      .cls-6 {
        stroke: #292f44;
      }
    </style>
    <clipPath id="clippath">
      <path class="cls-3" d="M79.16,123.09c-2.19-.07-4.39-.07-6.57,0-1,.03-2.01.08-2.94.46-1.4.54-2.43,1.71-3.41,2.84-3.91,4.5-7.82,9-11.73,13.5-18.9-12.45-36.55-25.55-54.01-40.45,10.26-12.83,20.53-25.64,30.81-38.45,4.42-5.51,8.84-11.02,13.27-16.53,2.7-3.37,5.43-6.76,8.47-9.84,2.23-2.25,4.61-4.3,7.11-6.2,16.64,22.22,18.3,52.26,18.79,80.19.08,4.83.16,9.66.21,14.49Z"/>
    </clipPath>
    <clipPath id="clippath-1">
      <path class="cls-3" d="M251.88,123.09c2.19-.07,4.39-.07,6.57,0,1,.03,2.01.08,2.94.46,1.4.54,2.43,1.71,3.41,2.84,3.91,4.5,7.82,9,11.73,13.5,18.9-12.45,36.55-25.55,54.01-40.45-10.26-12.83-20.53-25.64-30.81-38.45-4.42-5.51-8.84-11.02-13.27-16.53-2.7-3.37-5.43-6.76-8.47-9.84-2.23-2.25-4.61-4.3-7.11-6.2-16.64,22.22-18.3,52.26-18.79,80.19-.08,4.83-.16,9.66-.21,14.49Z"/>
    </clipPath>
    <clipPath id="clippath-2">
      <path class="cls-3" d="M257.24,329.58c-15.55,2.03-31.24,2.73-46.92,3.44-9.32.41-33.14.33-44.81.33s-35.48.08-44.8-.33c-15.67-.71-31.37-1.41-46.93-3.44,4.39-68.69,6.21-137.6,5.37-206.49-.05-4.83-.13-9.65-.21-14.49-.49-27.93-2.15-57.96-18.79-80.19,11.65-8.85,25.89-14.21,39.75-19.33,3.05-1.13,12.62-3.82,14.23-4.1,5.16-.92,9.72-4.01,13.96-4.48-1.65,9.71,2.74,19.9,10.02,26.56,3.64,3.33,8.02,5.83,12.73,7.5,4.71,1.67,9.74,2.51,14.67,2.51,9.87,0,20.13-3.36,27.41-10.02,7.27-6.66,11.67-16.85,10.02-26.56,4.24.48,8.8,3.56,13.96,4.48,1.61.29,11.18,2.97,14.22,4.1,13.86,5.12,28.12,10.48,39.76,19.33-16.64,22.22-18.3,52.26-18.8,80.19-.08,4.83-.16,9.66-.21,14.49-.83,68.89,1,137.8,5.37,206.49Z"/>
    </clipPath>
    <clipPath id="clippath-3">
      <path class="cls-3" d="M257.24,329.58c-15.55,2.03-31.24,2.73-46.92,3.44-9.32.41-33.14.33-44.81.33s-35.48.08-44.8-.33c-15.67-.71-31.37-1.41-46.93-3.44,4.39-68.69,6.21-137.6,5.37-206.49-.05-4.83-.13-9.65-.21-14.49-.49-27.93-2.15-57.96-18.79-80.19,11.65-8.85,25.89-14.21,39.75-19.33,3.05-1.13,12.62-3.82,14.23-4.1,5.16-.92,9.72-4.01,13.96-4.48-1.65,9.71,2.74,19.9,10.02,26.56,3.64,3.33,8.02,5.83,12.73,7.5,4.71,1.67,9.74,2.51,14.67,2.51,9.87,0,20.13-3.36,27.41-10.02,7.27-6.66,11.67-16.85,10.02-26.56,4.24.48,8.8,3.56,13.96,4.48,1.61.29,11.18,2.97,14.22,4.1,13.86,5.12,28.12,10.48,39.76,19.33-16.64,22.22-18.3,52.26-18.8,80.19-.08,4.83-.16,9.66-.21,14.49-.83,68.89,1,137.8,5.37,206.49Z"/>
    </clipPath>
    <clipPath id="clippath-4">
      <path class="cls-3" d="M192.92,27.06c-7.28,6.66-17.54,10.02-27.41,10.02-4.93,0-9.96-.84-14.67-2.51-4.71-1.67-9.09-4.18-12.73-7.5-7.27-6.66-11.67-16.85-10.02-26.56,11.33,5.01,25.89,6.99,37.41,6.99s26.09-1.98,37.42-6.99c1.65,9.71-2.74,19.9-10.02,26.56Z"/>
    </clipPath>
  </defs>
  <g class="cls-12">
    <g id="Layer_1" data-name="Layer 1">
      <g id="Front">
        <g>
          <path class="cls-10" d="M79.16,123.09c-2.19-.07-4.39-.07-6.57,0-1,.03-2.01.08-2.94.46-1.4.54-2.43,1.71-3.41,2.84-3.91,4.5-7.82,9-11.73,13.5-18.9-12.45-36.55-25.55-54.01-40.45,10.26-12.83,20.53-25.64,30.81-38.45,4.42-5.51,8.84-11.02,13.27-16.53,2.7-3.37,5.43-6.76,8.47-9.84,2.23-2.25,4.61-4.3,7.11-6.2,16.64,22.22,18.3,52.26,18.79,80.19.08,4.83.16,9.66.21,14.49Z"/>
          <path class="cls-4" d="M58.33,127.21c3.32-4.69,8.72-7.84,14.43-8.42"/>
          <g class="cls-15">
            <path class="cls-5" d="M3.17,94.47c18.92,14.59,39.05,27.93,60.16,39.9"/>
            <path class="cls-5" d="M6.7,90.39c19.56,14.05,39.2,28.15,60.59,39.89"/>
          </g>
          <path class="cls-9" d="M40.28,130.22c4.67,3.28,9.41,6.5,14.23,9.67,3.91-4.5,7.82-9,11.73-13.5.99-1.13,2.01-2.3,3.41-2.84.92-.37,1.94-.42,2.94-.46,2.18-.07,4.38-.07,6.57,0-.05-4.83-.13-9.65-.21-14.49-.03-1.67-.06-3.35-.1-5.04-21.23,3.12-33.36,18.26-38.56,26.65Z"/>
          <path class="cls-6" d="M79.16,123.09c-2.19-.07-4.39-.07-6.57,0-1,.03-2.01.08-2.94.46-1.4.54-2.43,1.71-3.41,2.84-3.91,4.5-7.82,9-11.73,13.5-18.9-12.45-36.55-25.55-54.01-40.45,10.26-12.83,20.53-25.64,30.81-38.45,4.42-5.51,8.84-11.02,13.27-16.53,2.7-3.37,5.43-6.76,8.47-9.84,2.23-2.25,4.61-4.3,7.11-6.2,16.64,22.22,18.3,52.26,18.79,80.19.08,4.83.16,9.66.21,14.49Z"/>
        </g>
        <g>
          <path class="cls-10" d="M251.88,123.09c2.19-.07,4.39-.07,6.57,0,1,.03,2.01.08,2.94.46,1.4.54,2.43,1.71,3.41,2.84,3.91,4.5,7.82,9,11.73,13.5,18.9-12.45,36.55-25.55,54.01-40.45-10.26-12.83-20.53-25.64-30.81-38.45-4.42-5.51-8.84-11.02-13.27-16.53-2.7-3.37-5.43-6.76-8.47-9.84-2.23-2.25-4.61-4.3-7.11-6.2-16.64,22.22-18.3,52.26-18.79,80.19-.08,4.83-.16,9.66-.21,14.49Z"/>
          <path class="cls-4" d="M272.71,127.21c-3.32-4.69-8.72-7.84-14.43-8.42"/>
          <g class="cls-11">
            <path class="cls-5" d="M327.88,94.47c-18.92,14.59-39.05,27.93-60.16,39.9"/>
            <path class="cls-5" d="M324.35,90.39c-19.56,14.05-39.2,28.15-60.59,39.89"/>
          </g>
          <path class="cls-9" d="M268.99,106.12c-4.14-3.22-10.4-5.75-16.65-7.68-.12,3.4-.19,6.79-.25,10.15-.08,4.83-.16,9.66-.21,14.49,2.19-.07,4.39-.07,6.57,0,1,.03,2.01.08,2.94.46,1.4.54,2.43,1.71,3.41,2.84,3.91,4.5,7.82,9,11.73,13.5,5.23-3.45,10.36-6.95,15.43-10.53-4.86-5.69-14.84-16.92-22.97-23.24Z"/>
          <path class="cls-6" d="M251.88,123.09c2.19-.07,4.39-.07,6.57,0,1,.03,2.01.08,2.94.46,1.4.54,2.43,1.71,3.41,2.84,3.91,4.5,7.82,9,11.73,13.5,18.9-12.45,36.55-25.55,54.01-40.45-10.26-12.83-20.53-25.64-30.81-38.45-4.42-5.51-8.84-11.02-13.27-16.53-2.7-3.37-5.43-6.76-8.47-9.84-2.23-2.25-4.61-4.3-7.11-6.2-16.64,22.22-18.3,52.26-18.79,80.19-.08,4.83-.16,9.66-.21,14.49Z"/>
        </g>
        <g>
          <path class="cls-10" d="M257.24,329.58c-15.55,2.03-31.24,2.73-46.92,3.44-9.32.41-33.14.33-44.81.33s-35.48.08-44.8-.33c-15.67-.71-31.37-1.41-46.93-3.44,4.39-68.69,6.21-137.6,5.37-206.49-.05-4.83-.13-9.65-.21-14.49-.49-27.93-2.15-57.96-18.79-80.19,11.65-8.85,25.89-14.21,39.75-19.33,3.05-1.13,12.62-3.82,14.23-4.1,5.16-.92,9.72-4.01,13.96-4.48-1.65,9.71,2.74,19.9,10.02,26.56,3.64,3.33,8.02,5.83,12.73,7.5,4.71,1.67,9.74,2.51,14.67,2.51,9.87,0,20.13-3.36,27.41-10.02,7.27-6.66,11.67-16.85,10.02-26.56,4.24.48,8.8,3.56,13.96,4.48,1.61.29,11.18,2.97,14.22,4.1,13.86,5.12,28.12,10.48,39.76,19.33-16.64,22.22-18.3,52.26-18.8,80.19-.08,4.83-.16,9.66-.21,14.49-.83,68.89,1,137.8,5.37,206.49Z"/>
          <g class="cls-14">
            <g>
              <path class="cls-2" d="M113.46,40.91c5.76-2.39,11.72-4.33,17.8-5.77"/>
              <path class="cls-2" d="M77.44,112.66c6.24-5.82,13.97-10.03,22.24-12.13"/>
              <path class="cls-2" d="M77.16,117.22c7.24-2.11,14.82-3.05,22.35-2.77"/>
              <path class="cls-2" d="M83.05,228.58c9.88.09,19.78-.92,29.44-3.02"/>
              <path class="cls-2" d="M81.58,210.13c5.7-.37,11.38-1.12,16.99-2.25"/>
              <path class="cls-2" d="M217.58,40.91c-5.76-2.39-11.72-4.33-17.8-5.77"/>
              <path class="cls-2" d="M253.6,112.66c-6.24-5.82-13.97-10.03-22.24-12.13"/>
              <path class="cls-2" d="M253.88,117.22c-7.24-2.11-14.82-3.05-22.35-2.77"/>
              <path class="cls-2" d="M247.99,228.58c-9.88.09-19.78-.92-29.44-3.02"/>
              <path class="cls-2" d="M249.46,210.13c-5.7-.37-11.38-1.12-16.99-2.25"/>
            </g>
          </g>
          <g class="cls-13">
            <g>
              <path class="cls-5" d="M248.56,319.9c-4.16-76.6-7.14-142.64-3.64-219.49,1.11-24.36,3.25-50.02,17.01-70.15-5.5-4.49-11.47-7.19-14.53-8.47-2.66-1.11-5.4-2.04-8.14-2.96-9.16-3.09-18.33-6.17-27.76-8.83-2.88,9.86-8.94,18.76-17.05,25.07-8.11,6.3-18.25,9.81-28.93,9.81s-20.82-3.5-28.93-9.81c-8.11-6.3-14.16-15.21-17.05-25.07-9.43,2.65-18.59,5.74-27.76,8.83-2.74.92-5.48,1.85-8.14,2.96-3.07,1.28-9.03,3.99-14.53,8.47,13.76,20.14,15.9,45.79,17.01,70.15,3.5,76.85.52,142.89-3.64,219.49"/>
              <path class="cls-5" d="M72.5,318.52c30.77,4.77,61.92,4.79,93.02,4.79s62.25-.02,93.02-4.79"/>
              <path class="cls-5" d="M258.96,323.67c-30.78,2.94-64.23,5.14-93.44,5.14h0c-29.22,0-62.67-2.2-93.44-5.14"/>
            </g>
          </g>
          <path class="cls-9" d="M81.99,330.52c5.34-128.46-.26-227.3-.26-227.3-.98.09-1.94.21-2.88.34.04,1.69.07,3.37.1,5.04.08,4.83.16,9.66.21,14.49.84,68.89-.99,137.8-5.37,206.49,2.73.36,5.47.66,8.2.94Z"/>
          <path class="cls-9" d="M251.87,123.09c.05-4.83.13-9.65.21-14.49.06-3.36.14-6.75.26-10.16-10.66-3.28-21.29-4.76-21.29-4.76-10.35,99.36-.9,205.31,2.57,238.13,7.9-.52,15.78-1.21,23.63-2.23-4.38-68.69-6.2-137.6-5.37-206.49Z"/>
          <path class="cls-6" d="M257.24,329.58c-15.55,2.03-31.24,2.73-46.92,3.44-9.32.41-33.14.33-44.81.33s-35.48.08-44.8-.33c-15.67-.71-31.37-1.41-46.93-3.44,4.39-68.69,6.21-137.6,5.37-206.49-.05-4.83-.13-9.65-.21-14.49-.49-27.93-2.15-57.96-18.79-80.19,11.65-8.85,25.89-14.21,39.75-19.33,3.05-1.13,12.62-3.82,14.23-4.1,5.16-.92,9.72-4.01,13.96-4.48-1.65,9.71,2.74,19.9,10.02,26.56,3.64,3.33,8.02,5.83,12.73,7.5,4.71,1.67,9.74,2.51,14.67,2.51,9.87,0,20.13-3.36,27.41-10.02,7.27-6.66,11.67-16.85,10.02-26.56,4.24.48,8.8,3.56,13.96,4.48,1.61.29,11.18,2.97,14.22,4.1,13.86,5.12,28.12,10.48,39.76,19.33-16.64,22.22-18.3,52.26-18.8,80.19-.08,4.83-.16,9.66-.21,14.49-.83,68.89,1,137.8,5.37,206.49Z"/>
        </g>
        <g>
          <path class="cls-1" d="M192.92,27.06c-7.28,6.66-17.54,10.02-27.41,10.02-4.93,0-9.96-.84-14.67-2.51-4.71-1.67-9.09-4.18-12.73-7.5-7.27-6.66-11.67-16.85-10.02-26.56,11.33,5.01,25.89,6.99,37.41,6.99s26.09-1.98,37.42-6.99c1.65,9.71-2.74,19.9-10.02,26.56Z"/>
          <g class="cls-7">
            <path class="cls-5" d="M204.59,6.51c-12.03,5.76-25.93,8.01-39.07,8.01s-27.04-2.25-39.07-8.01"/>
          </g>
          <path class="cls-6" d="M192.92,27.06c-7.28,6.66-17.54,10.02-27.41,10.02-4.93,0-9.96-.84-14.67-2.51-4.71-1.67-9.09-4.18-12.73-7.5-7.27-6.66-11.67-16.85-10.02-26.56,11.33,5.01,25.89,6.99,37.41,6.99s26.09-1.98,37.42-6.99c1.65,9.71-2.74,19.9-10.02,26.56Z"/>
          <rect class="cls-8" x="153.29" y="19.85" width="24.47" height="4.71"/>
          <rect class="cls-8" x="158.33" y="26.05" width="14.37" height="4.71"/>
        </g>
      </g>
    </g>
  </g>
</svg>