<?xml version="1.0" encoding="UTF-8"?>
<svg id="Layer_1" data-name="Layer 1" xmlns="http://www.w3.org/2000/svg" viewBox="0 0 1536 1024">
  <defs>
    <style>
      .cls-1 {
        font-family: FreestyleScript-Regular, 'Freestyle Script';
        font-size: 50px;
      }

      .cls-1, .cls-2 {
        fill: #468200;
      }
    </style>
  </defs>
  <g>
    <polygon class="cls-2" points="1177 382 1208.01 450 1209 382 1228 382 1228 489 1208 489 1176 419 1176 489 1157 489 1157 382 1177 382"/>
    <path class="cls-2" d="M1096.18,380.34c32.27-3.9,44.5,16,46.26,45.18,1.99,32.98-4.51,68.24-45.53,64.53-21.82-1.97-31.01-20.61-32.5-40.5-1.95-25.96-1.44-65.19,31.77-69.21ZM1101.17,397.25c-14.11,1.56-16.06,19.11-16.76,30.32-.89,14.29-1.11,45.9,19.39,45.4,20.35-.49,18.68-35.33,17.64-49.45-.89-12.04-4.81-27.99-20.27-26.28Z"/>
    <path class="cls-2" d="M989.5,526.69c2.66.27,8.52,1.84,11.18,2.82,24.56,9.07,23.77,51.06-.7,59.87l21.02,43.61h-23l-17.11-40-8.89-.11c-.5.36,0,40.11,0,40.11h-20v-106.31c12.03.89,25.67-1.2,37.5,0ZM972,577.06c13.61.76,26.39-.92,26.07-17.52-.31-15.87-13.49-16.19-26.07-15.48v33Z"/>
    <path class="cls-2" d="M891.18,525.34c27.48-3.31,43.14,14.04,45.2,40.24,1.98,25.09.76,64.6-31.59,68.38-32.67,3.82-44.69-15.73-46.43-45.35-1.47-25.06,2.07-59.56,32.82-63.26ZM892.13,543.29c-4.12.84-7.15,4.53-8.91,8.09-5.34,10.79-5.58,44.17-.84,55.2,2.98,6.94,8.7,11.08,16.5,10.51,8.46-.62,12.47-5.71,14.8-13.25,3.36-10.89,3.24-40.8-1.26-51.3-3.73-8.7-11.24-11.09-20.29-9.25Z"/>
    <path class="cls-2" d="M957,382v43h31s.1-33.42,0-43h20v107h-20c.18-3.29.01-35.12,0-46h-31v46h-20v-107h20Z"/>
    <path class="cls-2" d="M768.03,489.03l29.47-106.03,21.92-1.04,30.61,107.06h-21l-5.96-22.54-28.43-.52-5.61,23.06h-21ZM819.03,449.03l-10.5-41.01-10.5,41.01h21Z"/>
    <path class="cls-2" d="M920.4,410.06l-19,2c2.24-20.32-28.87-20.12-23.53.03,3.48,13.14,35.64,16.03,42.25,35.74,17.05,50.81-65.05,58.83-64.67,10.28l18.37-2.93c2.14.53,1.36,4.83,2.06,6.89,7,20.43,34.09,8.98,24.71-8.71-6.24-11.76-34.4-13.66-40.92-33.08-16.07-47.85,61.38-56.65,60.73-10.22Z"/>
    <path class="cls-2" d="M775.4,555.07l-19.01,2c2.2-19.59-29.12-21.13-23.52.03,2.47,9.33,23.9,15.98,31.86,22.14,20.9,16.18,13.73,51.84-13.82,54.83-22.79,2.47-41.15-5.92-41.37-30.87l19.86-3.14c-2.87,25.89,37.39,19.9,26.2-1.69-3.99-7.7-25.17-14.54-33.21-21.79-18.8-16.95-11.16-48.66,15.63-51.39,20.66-2.11,38.01,7.42,37.38,29.88Z"/>
    <path class="cls-2" d="M1089,527v17.53c-4.89.07-29.79-.04-35,0v25.47h35v17h-35v29h35s.11,15.96,0,17h-55v-106h55Z"/>
    <path class="cls-2" d="M768,382c.5.36-1,1.29-1,1.5v16.5h-34v26h31v18h-31v45h-20v-107h55Z"/>
    <polygon class="cls-2" points="852 527 852 545 830 545 830 633 810 633 810 545 787 545 787 527 852 527"/>
    <rect class="cls-2" x="1028" y="382" width="20" height="107"/>
    <path class="cls-2" d="M370,495.06l-8.94,6.55-8.78-.33-62.64-40.36c-2.39-2.17-4.3-5.63-3.25-8.9l50.39-77.68c15.39-23.34,49.19-31.35,75.01-38.99,3.48-1.03,9.45-3.38,12.72-3.37,5.6.01,9.13,5.48,13.8,8.28,26.15,15.68,67.25,13.63,93.39-.99,5.98-3.34,6.73-7.86,15.67-7.12,8.69.72,41.18,12.43,50.88,16.17,19.16,7.39,24.84,13.16,36.57,29.43,16.43,22.79,30.44,48.16,47.03,70.97,2.34,3.72,1.08,8.26-1.59,11.38l-63.51,41.2c-8.79,2.92-11.15-2.2-17.74-6.23v162.5c0,.61-1.81,3.83-2.44,4.56-4.69,5.52-25.75,11.67-33.35,13.65-50.76,13.27-128.1,13.45-177.2-6.23-3.42-1.37-16.02-6.99-16.02-10.98v-163.5ZM419.29,350.44c-1.04-.38-2.1-.11-3.14.13-9.63,2.22-25.53,8.15-35.21,11.74-12.24,4.54-19.83,7.1-28.26,17.66l-47.14,71.73,52.31,33.27,12.42-13.53c1.1-6.86-.73-15.14.15-21.81,1.08-8.14,12.61-9.66,15.58-1.5l.59,204.55c62.12,22.82,134.06,21.42,196.41.04l.55-204.59c2.97-8.16,14.5-6.64,15.58,1.5.76,5.75-1.35,15.84.15,20.81.46,1.54,12.25,14.36,13.26,14.44l51.38-31.75-.48-2.91c-16.91-21.66-29.87-49.75-46.98-70.82-1.87-2.31-5.62-6.32-7.9-8.07-7.72-5.92-43.91-18.27-54.36-20.51-1.35-.29-2.64-.65-4.04-.45-15.5,63.16-114.4,62.76-130.87.1ZM530.4,358.07c-24.27,9.53-49.54,11.37-75,5.49-4.51-1.04-8.63-3.33-12.52-4.49-4.63-1.38,4.08,8.07,5.05,8.96,23.53,21.51,65.4,17.55,82.47-9.96Z"/>
  </g>
  <text class="cls-1" transform="translate(401.54 472.98) rotate(-.1)"><tspan x="0" y="0">Make Unique</tspan></text>
</svg>