<?xml version="1.0" encoding="UTF-8"?>
<svg xmlns="http://www.w3.org/2000/svg" xmlns:xlink="http://www.w3.org/1999/xlink" viewBox="0 0 331.03 333.87">
  <defs>
    <style>
      .cls-1 {
        stroke: #e4e5eb;
      }

      .cls-1, .cls-2, .cls-3, .cls-4 {
        fill: none;
      }

      .cls-1, .cls-3, .cls-4 {
        stroke-linecap: round;
        stroke-linejoin: round;
      }

      .cls-5 {
        clip-path: url(#clippath-4);
      }

      .cls-6 {
        fill: #383838;
        mix-blend-mode: multiply;
        opacity: .09;
      }

      .cls-7 {
        fill: #fff;
      }

      .cls-8 {
        clip-path: url(#clippath-1);
      }

      .cls-9 {
        isolation: isolate;
      }

      .cls-10 {
        clip-path: url(#clippath-5);
      }

      .cls-11 {
        clip-path: url(#clippath-3);
      }

      .cls-3 {
        stroke: #797e91;
      }

      .cls-12 {
        clip-path: url(#clippath-2);
      }

      .cls-13 {
        clip-path: url(#clippath);
      }

      .cls-4 {
        stroke: #292f44;
      }
    </style>
    <clipPath id="clippath">
      <path class="cls-2" d="M79.16,123.09c-2.19-.07-4.39-.06-6.57.01-1,.03-2.01.08-2.95.46-1.39.54-2.42,1.71-3.4,2.83l-11.73,13.51c-18.91-12.45-36.55-25.55-54.01-40.46,10.25-12.82,20.53-25.63,30.81-38.44,4.42-5.51,8.84-11.02,13.27-16.53,2.7-3.38,5.42-6.76,8.47-9.84,2.24-2.25,4.61-4.31,7.11-6.2,16.64,22.22,18.3,52.26,18.79,80.19.08,4.82.16,9.65.21,14.48Z"/>
    </clipPath>
    <clipPath id="clippath-1">
      <path class="cls-2" d="M79.16,123.09c-2.19-.07-4.39-.06-6.57.01-1,.03-2.01.08-2.95.46-1.39.54-2.42,1.71-3.4,2.83l-11.73,13.51c-18.91-12.45-36.55-25.55-54.01-40.46,10.25-12.82,20.53-25.63,30.81-38.44,4.42-5.51,8.84-11.02,13.27-16.53,2.7-3.38,5.42-6.76,8.47-9.84,2.24-2.25,4.61-4.31,7.11-6.2,16.64,22.22,18.3,52.26,18.79,80.19.08,4.82.16,9.65.21,14.48Z"/>
    </clipPath>
    <clipPath id="clippath-2">
      <path class="cls-2" d="M330.53,99.43c-17.44,14.91-35.1,28.01-54,40.46-3.92-4.5-7.83-9.01-11.74-13.51-.98-1.12-2.01-2.29-3.4-2.83-.93-.37-1.95-.42-2.94-.46-2.19-.07-4.39-.08-6.58-.01.05-4.82.13-9.65.21-14.48.49-27.93,2.15-57.96,18.8-80.19,2.49,1.9,4.88,3.95,7.1,6.2,3.05,3.07,5.77,6.45,8.48,9.84,4.42,5.51,8.84,11.02,13.27,16.53,10.27,12.81,20.55,25.62,30.8,38.44Z"/>
    </clipPath>
    <clipPath id="clippath-3">
      <path class="cls-2" d="M330.53,99.43c-17.44,14.91-35.1,28.01-54,40.46-3.92-4.5-7.83-9.01-11.74-13.51-.98-1.12-2.01-2.29-3.4-2.83-.93-.37-1.95-.42-2.94-.46-2.19-.07-4.39-.08-6.58-.01.05-4.82.13-9.65.21-14.48.49-27.93,2.15-57.96,18.8-80.19,2.49,1.9,4.88,3.95,7.1,6.2,3.05,3.07,5.77,6.45,8.48,9.84,4.42,5.51,8.84,11.02,13.27,16.53,10.27,12.81,20.55,25.62,30.8,38.44Z"/>
    </clipPath>
    <clipPath id="clippath-4">
      <path class="cls-2" d="M257.24,329.58c-15.56,2.05-31.25,2.74-46.92,3.44-9.33.42-33.14.34-44.81.34s-35.48.08-44.8-.34c-15.67-.7-31.37-1.4-46.93-3.44,4.39-68.68,6.2-137.6,5.37-206.49-.05-4.82-.13-9.65-.21-14.48-.49-27.93-2.15-57.96-18.79-80.19,11.65-8.85,25.9-14.22,39.75-19.33,3.05-1.13,12.62-3.82,14.23-4.1,5.16-.92,9.71-4.01,13.96-4.49,11.33,5.02,25.88,6.99,37.41,6.99s26.09-1.97,37.41-6.99c4.25.49,8.81,3.57,13.97,4.49,1.61.29,11.18,2.97,14.22,4.1,13.86,5.12,28.11,10.48,39.76,19.33-16.65,22.22-18.31,52.26-18.8,80.19-.08,4.82-.16,9.65-.21,14.48-.83,68.89,1,137.81,5.37,206.49Z"/>
    </clipPath>
    <clipPath id="clippath-5">
      <path class="cls-2" d="M257.24,329.58c-15.56,2.05-31.25,2.74-46.92,3.44-9.33.42-33.14.34-44.81.34s-35.48.08-44.8-.34c-15.67-.7-31.37-1.4-46.93-3.44,4.39-68.68,6.2-137.6,5.37-206.49-.05-4.82-.13-9.65-.21-14.48-.49-27.93-2.15-57.96-18.79-80.19,11.65-8.85,25.9-14.22,39.75-19.33,3.05-1.13,12.62-3.82,14.23-4.1,5.16-.92,9.71-4.01,13.96-4.49,11.33,5.02,25.88,6.99,37.41,6.99s26.09-1.97,37.41-6.99c4.25.49,8.81,3.57,13.97,4.49,1.61.29,11.18,2.97,14.22,4.1,13.86,5.12,28.11,10.48,39.76,19.33-16.65,22.22-18.31,52.26-18.8,80.19-.08,4.82-.16,9.65-.21,14.48-.83,68.89,1,137.81,5.37,206.49Z"/>
    </clipPath>
  </defs>
  <g class="cls-9">
    <g id="Layer_1" data-name="Layer 1">
      <g id="back">
        <g>
          <path class="cls-7" d="M79.16,123.09c-2.19-.07-4.39-.06-6.57.01-1,.03-2.01.08-2.95.46-1.39.54-2.42,1.71-3.4,2.83l-11.73,13.51c-18.91-12.45-36.55-25.55-54.01-40.46,10.25-12.82,20.53-25.63,30.81-38.44,4.42-5.51,8.84-11.02,13.27-16.53,2.7-3.38,5.42-6.76,8.47-9.84,2.24-2.25,4.61-4.31,7.11-6.2,16.64,22.22,18.3,52.26,18.79,80.19.08,4.82.16,9.65.21,14.48Z"/>
          <g class="cls-13">
            <path class="cls-3" d="M3.16,94.48c18.92,14.59,39.05,27.93,60.16,39.9"/>
            <path class="cls-3" d="M6.69,90.4c19.57,14.05,39.19,28.15,60.59,39.89"/>
          </g>
          <g class="cls-8">
            <g>
              <path class="cls-1" d="M70.33,93.71c3.11,10,5.03,20.38,5.69,30.83"/>
              <path class="cls-1" d="M72.33,124.91c-2.46-7.28-6.14-14.15-10.84-20.22"/>
            </g>
          </g>
          <path class="cls-6" d="M40.28,130.23c4.67,3.28,9.41,6.5,14.23,9.67,3.91-4.5,7.82-9,11.73-13.5.99-1.13,2.01-2.3,3.41-2.84.92-.37,1.94-.42,2.94-.46,2.18-.07,4.38-.07,6.57,0-.05-4.83-.13-9.65-.21-14.49-.03-1.67-.06-3.35-.1-5.04-21.23,3.12-33.36,18.26-38.56,26.65Z"/>
          <path class="cls-4" d="M79.16,123.09c-2.19-.07-4.39-.06-6.57.01-1,.03-2.01.08-2.95.46-1.39.54-2.42,1.71-3.4,2.83l-11.73,13.51c-18.91-12.45-36.55-25.55-54.01-40.46,10.25-12.82,20.53-25.63,30.81-38.44,4.42-5.51,8.84-11.02,13.27-16.53,2.7-3.38,5.42-6.76,8.47-9.84,2.24-2.25,4.61-4.31,7.11-6.2,16.64,22.22,18.3,52.26,18.79,80.19.08,4.82.16,9.65.21,14.48Z"/>
        </g>
        <g>
          <path class="cls-7" d="M330.53,99.43c-17.44,14.91-35.1,28.01-54,40.46-3.92-4.5-7.83-9.01-11.74-13.51-.98-1.12-2.01-2.29-3.4-2.83-.93-.37-1.95-.42-2.94-.46-2.19-.07-4.39-.08-6.58-.01.05-4.82.13-9.65.21-14.48.49-27.93,2.15-57.96,18.8-80.19,2.49,1.9,4.88,3.95,7.1,6.2,3.05,3.07,5.77,6.45,8.48,9.84,4.42,5.51,8.84,11.02,13.27,16.53,10.27,12.81,20.55,25.62,30.8,38.44Z"/>
          <g class="cls-12">
            <path class="cls-3" d="M327.87,94.48c-18.92,14.59-39.05,27.93-60.16,39.9"/>
            <path class="cls-3" d="M324.34,90.4c-19.57,14.05-39.19,28.15-60.59,39.89"/>
          </g>
          <g class="cls-11">
            <path class="cls-1" d="M260.7,93.71c-3.11,10-5.03,20.38-5.69,30.83"/>
            <path class="cls-1" d="M258.7,124.91c2.46-7.28,6.14-14.15,10.84-20.22"/>
          </g>
          <path class="cls-6" d="M268.99,106.13c-4.14-3.22-10.4-5.75-16.65-7.68-.12,3.4-.19,6.79-.25,10.15-.08,4.83-.16,9.65-.21,14.49,2.19-.07,4.39-.07,6.57,0,1,.03,2.01.08,2.94.46,1.4.54,2.43,1.71,3.41,2.84,3.91,4.5,7.82,9,11.73,13.5,5.23-3.45,10.36-6.95,15.43-10.53-4.86-5.69-14.84-16.92-22.97-23.24Z"/>
          <path class="cls-4" d="M330.53,99.43c-17.44,14.91-35.1,28.01-54,40.46-3.92-4.5-7.83-9.01-11.74-13.51-.98-1.12-2.01-2.29-3.4-2.83-.93-.37-1.95-.42-2.94-.46-2.19-.07-4.39-.08-6.58-.01.05-4.82.13-9.65.21-14.48.49-27.93,2.15-57.96,18.8-80.19,2.49,1.9,4.88,3.95,7.1,6.2,3.05,3.07,5.77,6.45,8.48,9.84,4.42,5.51,8.84,11.02,13.27,16.53,10.27,12.81,20.55,25.62,30.8,38.44Z"/>
        </g>
        <g>
          <path class="cls-7" d="M257.24,329.58c-15.56,2.05-31.25,2.74-46.92,3.44-9.33.42-33.14.34-44.81.34s-35.48.08-44.8-.34c-15.67-.7-31.37-1.4-46.93-3.44,4.39-68.68,6.2-137.6,5.37-206.49-.05-4.82-.13-9.65-.21-14.48-.49-27.93-2.15-57.96-18.79-80.19,11.65-8.85,25.9-14.22,39.75-19.33,3.05-1.13,12.62-3.82,14.23-4.1,5.16-.92,9.71-4.01,13.96-4.49,11.33,5.02,25.88,6.99,37.41,6.99s26.09-1.97,37.41-6.99c4.25.49,8.81,3.57,13.97,4.49,1.61.29,11.18,2.97,14.22,4.1,13.86,5.12,28.11,10.48,39.76,19.33-16.65,22.22-18.31,52.26-18.8,80.19-.08,4.82-.16,9.65-.21,14.48-.83,68.89,1,137.81,5.37,206.49Z"/>
          <g class="cls-5">
            <path class="cls-3" d="M72.5,318.53c30.77,4.77,61.92,4.79,93.02,4.79s62.25-.02,93.02-4.79"/>
            <path class="cls-3" d="M258.96,323.68c-30.78,2.94-64.23,5.14-93.44,5.14s-62.67-2.2-93.44-5.14"/>
          </g>
          <g class="cls-10">
            <g>
              <path class="cls-1" d="M213.35,246.51c14.96-.63,30.01-.37,44.88-2.1"/>
              <path class="cls-1" d="M232.81,7.28c-3.5,7.19-6.35,14.7-8.49,22.4"/>
              <path class="cls-1" d="M117.69,246.51c-14.96-.63-30.01-.37-44.88-2.1"/>
              <path class="cls-1" d="M98.23,7.28c3.5,7.19,6.35,14.7,8.49,22.4"/>
            </g>
          </g>
          <path class="cls-6" d="M81.99,330.53c5.34-128.46-.26-227.3-.26-227.3-.98.09-1.94.21-2.88.34.04,1.69.07,3.37.1,5.04.08,4.83.16,9.65.21,14.49.84,68.89-.99,137.8-5.37,206.49,2.73.36,5.47.66,8.2.94Z"/>
          <path class="cls-6" d="M251.87,123.1c.05-4.83.13-9.65.21-14.49.06-3.36.14-6.75.26-10.16-10.66-3.28-21.29-4.76-21.29-4.76-10.35,99.36-.9,205.31,2.57,238.13,7.9-.52,15.78-1.21,23.63-2.23-4.38-68.69-6.2-137.6-5.37-206.49Z"/>
          <path class="cls-4" d="M257.24,329.58c-15.56,2.05-31.25,2.74-46.92,3.44-9.33.42-33.14.34-44.81.34s-35.48.08-44.8-.34c-15.67-.7-31.37-1.4-46.93-3.44,4.39-68.68,6.2-137.6,5.37-206.49-.05-4.82-.13-9.65-.21-14.48-.49-27.93-2.15-57.96-18.79-80.19,11.65-8.85,25.9-14.22,39.75-19.33,3.05-1.13,12.62-3.82,14.23-4.1,5.16-.92,9.71-4.01,13.96-4.49,11.33,5.02,25.88,6.99,37.41,6.99s26.09-1.97,37.41-6.99c4.25.49,8.81,3.57,13.97,4.49,1.61.29,11.18,2.97,14.22,4.1,13.86,5.12,28.11,10.48,39.76,19.33-16.65,22.22-18.31,52.26-18.8,80.19-.08,4.82-.16,9.65-.21,14.48-.83,68.89,1,137.81,5.37,206.49Z"/>
        </g>
      </g>
    </g>
  </g>
</svg>